<svg viewBox="0 0 306.67 68.97" xmlns:xlink="http://www.w3.org/1999/xlink" xmlns="http://www.w3.org/2000/svg"><defs><style>.cls-1{fill:url(#linear-gradient);}.cls-2{fill:url(#linear-gradient-2);}.cls-3{fill:url(#linear-gradient-3);}.cls-4{fill:url(#linear-gradient-4);}.cls-5{fill:url(#linear-gradient-5);}.cls-6{fill:url(#linear-gradient-6);}.cls-7{fill:url(#linear-gradient-7);}.cls-8{fill:url(#linear-gradient-8);}.cls-9{fill:url(#linear-gradient-9);}.cls-10{fill:url(#linear-gradient-10);}.cls-11{fill:url(#linear-gradient-11);}.cls-12{fill:url(#linear-gradient-12);}.cls-13{fill:url(#linear-gradient-13);}.cls-14{fill:url(#linear-gradient-14);}.cls-15{fill:url(#linear-gradient-15);}.cls-16{fill:url(#linear-gradient-16);}.cls-17{fill:url(#linear-gradient-17);}.cls-18{fill:url(#linear-gradient-18);}.cls-19{fill:url(#linear-gradient-19);}.cls-20{fill:url(#linear-gradient-20);}.cls-21{fill:url(#linear-gradient-21);}.cls-22{fill:url(#linear-gradient-22);}.cls-23{fill:url(#linear-gradient-23);}.cls-24{fill:url(#linear-gradient-24);}.cls-25{fill:url(#linear-gradient-25);}.cls-26{fill:url(#linear-gradient-26);}.cls-27{fill:url(#linear-gradient-27);}.cls-28{fill:url(#linear-gradient-28);}.cls-29{fill:url(#linear-gradient-29);}.cls-30{fill:url(#linear-gradient-30);}.cls-31{fill:url(#linear-gradient-31);}.cls-32{fill:url(#linear-gradient-32);}.cls-33{fill:url(#linear-gradient-33);}.cls-34{fill:url(#linear-gradient-34);}.cls-35{fill:url(#linear-gradient-35);}.cls-36{fill:url(#linear-gradient-36);}.cls-37{fill:url(#linear-gradient-37);}.cls-38{fill:url(#linear-gradient-38);}.cls-39{fill:url(#linear-gradient-39);}.cls-40{fill:url(#linear-gradient-40);}.cls-41{fill:url(#linear-gradient-41);}.cls-42{fill:url(#linear-gradient-42);}.cls-43{fill:url(#linear-gradient-43);}.cls-44{fill:url(#linear-gradient-44);}.cls-45{fill:url(#linear-gradient-45);}.cls-46{fill:url(#linear-gradient-46);}.cls-47{fill:url(#linear-gradient-47);}.cls-48{fill:url(#linear-gradient-48);}.cls-49{fill:url(#linear-gradient-49);}.cls-50{fill:url(#linear-gradient-50);}.cls-51{fill:url(#linear-gradient-51);}.cls-52{fill:url(#linear-gradient-52);}.cls-53{fill:url(#linear-gradient-53);}.cls-54{fill:url(#linear-gradient-54);}.cls-55{fill:url(#linear-gradient-55);}.cls-56{fill:url(#linear-gradient-56);}.cls-57{fill:url(#linear-gradient-57);}.cls-58{fill:url(#linear-gradient-58);}.cls-59{fill:url(#linear-gradient-59);}.cls-60{fill:url(#linear-gradient-60);}.cls-61{fill:url(#linear-gradient-61);}.cls-62{fill:url(#linear-gradient-62);}.cls-63{fill:url(#linear-gradient-63);}.cls-64{fill:url(#linear-gradient-64);}.cls-65{fill:url(#linear-gradient-65);}.cls-66{fill:url(#linear-gradient-66);}.cls-67{fill:url(#linear-gradient-67);}.cls-68{fill:url(#linear-gradient-68);}.cls-69{fill:url(#linear-gradient-69);}.cls-70{fill:url(#linear-gradient-70);}.cls-71{fill:url(#linear-gradient-71);}.cls-72{fill:url(#linear-gradient-72);}.cls-73{fill:url(#linear-gradient-73);}.cls-74{fill:url(#linear-gradient-74);}.cls-75{fill:url(#linear-gradient-75);}.cls-76{fill:url(#linear-gradient-76);}.cls-77{fill:url(#linear-gradient-77);}.cls-78{fill:url(#linear-gradient-78);}.cls-79{fill:url(#linear-gradient-79);}.cls-80{fill:url(#linear-gradient-80);}.cls-81{fill:url(#linear-gradient-81);}.cls-82{fill:url(#linear-gradient-82);}.cls-83{fill:url(#linear-gradient-83);}.cls-84{fill:url(#linear-gradient-84);}.cls-85{fill:url(#linear-gradient-85);}.cls-86{fill:url(#linear-gradient-86);}.cls-87{fill:url(#linear-gradient-87);}.cls-88{fill:#ec1c3c;}.cls-89{fill:url(#linear-gradient-88);}</style><linearGradient gradientUnits="userSpaceOnUse" gradientTransform="translate(-0.04 -0.2) rotate(0.01)" y2="3.2" x2="37.29" y1="21.98" x1="35.26" id="linear-gradient"><stop stop-opacity="0" stop-color="#fff" offset="0.5"></stop><stop stop-color="#ec1c3c" offset="1"></stop></linearGradient><linearGradient xlink:href="#linear-gradient" gradientTransform="matrix(0.15, 0.99, -0.99, 0.15, 50.58, -21.09)" y2="4.63" x2="39.54" y1="35.05" x1="35.07" id="linear-gradient-2"></linearGradient><linearGradient xlink:href="#linear-gradient" y2="35.81" x2="65.67" y1="35.24" x1="35.35" id="linear-gradient-3"></linearGradient><linearGradient xlink:href="#linear-gradient" y2="26.69" x2="64.44" y1="34.92" x1="34.94" id="linear-gradient-4"></linearGradient><linearGradient xlink:href="#linear-gradient" y2="43.67" x2="59.37" y1="35.34" x1="34.94" id="linear-gradient-5"></linearGradient><linearGradient xlink:href="#linear-gradient" gradientTransform="translate(39.03 -17) rotate(41.37)" y2="49.28" x2="47.16" y1="35.72" x1="34.9" id="linear-gradient-6"></linearGradient><linearGradient gradientUnits="userSpaceOnUse" gradientTransform="translate(17.45 -11.61) rotate(29.07)" y2="34.36" x2="34.57" y1="22.55" x1="27.43" id="linear-gradient-7"><stop stop-color="#ec1c3c" offset="0"></stop><stop stop-opacity="0" stop-color="#fff" offset="0.5"></stop></linearGradient><linearGradient xlink:href="#linear-gradient" gradientTransform="matrix(0.82, 0.57, -0.57, 0.82, 23.4, -23.41)" y2="17.4" x2="60.43" y1="34.91" x1="35.35" id="linear-gradient-8"></linearGradient><linearGradient xlink:href="#linear-gradient" y2="30.72" x2="58.93" y1="30.72" x1="34.86" id="linear-gradient-9"></linearGradient><linearGradient xlink:href="#linear-gradient" y2="22.42" x2="57.01" y1="35.2" x1="34.66" id="linear-gradient-10"></linearGradient><linearGradient xlink:href="#linear-gradient-7" gradientTransform="translate(-0.04 -0.2) rotate(0.01)" y2="31.09" x2="34.87" y1="5.05" x1="31.91" id="linear-gradient-11"></linearGradient><linearGradient xlink:href="#linear-gradient-7" gradientTransform="matrix(0.22, 0.98, -0.98, 0.22, 51.93, 0.48)" y2="32.9" x2="35.24" y1="32.9" x1="15.89" id="linear-gradient-12"></linearGradient><linearGradient xlink:href="#linear-gradient" y2="48.72" x2="63.17" y1="35.36" x1="35.43" id="linear-gradient-13"></linearGradient><linearGradient xlink:href="#linear-gradient" gradientTransform="matrix(0.9, 0.44, -0.44, 0.9, 23.9, -13.16)" y2="53.02" x2="44.01" y1="35.47" x1="34.9" id="linear-gradient-14"></linearGradient><linearGradient xlink:href="#linear-gradient-7" gradientTransform="translate(43.63 -6.95) rotate(50.94)" y2="35.75" x2="34.14" y1="48.34" x1="24.38" id="linear-gradient-15"></linearGradient><linearGradient xlink:href="#linear-gradient-7" gradientTransform="translate(-0.04 -0.2) rotate(0.01)" y2="36.3" x2="34.29" y1="53.45" x1="18.21" id="linear-gradient-16"></linearGradient><linearGradient xlink:href="#linear-gradient" y2="56.63" x2="35.16" y1="41.28" x1="35.21" id="linear-gradient-17"></linearGradient><linearGradient xlink:href="#linear-gradient-7" gradientTransform="translate(-0.04 -0.2) rotate(0.01)" y2="43.1" x2="27" y1="56.6" x1="12.37" id="linear-gradient-18"></linearGradient><linearGradient xlink:href="#linear-gradient-7" gradientTransform="matrix(0.95, 0.33, -0.33, 0.95, 13.72, -7.41)" y2="37.43" x2="35.28" y1="37.43" x1="21.49" id="linear-gradient-19"></linearGradient><linearGradient xlink:href="#linear-gradient-7" gradientTransform="translate(9.49 -4.45) rotate(13.54)" y2="38.04" x2="35.25" y1="38.04" x1="10.14" id="linear-gradient-20"></linearGradient><linearGradient xlink:href="#linear-gradient-7" gradientTransform="translate(2.14 -1.57) rotate(3.43)" y2="35.28" x2="33.03" y1="36.2" x1="15.49" id="linear-gradient-21"></linearGradient><linearGradient xlink:href="#linear-gradient-7" gradientTransform="translate(-0.04 -0.2) rotate(0.01)" y2="35.09" x2="31.41" y1="34.5" x1="6.58" id="linear-gradient-22"></linearGradient><linearGradient xlink:href="#linear-gradient-7" gradientTransform="translate(44 -2.85) rotate(68.86)" y2="30.8" x2="35.21" y1="30.8" x1="12.71" id="linear-gradient-23"></linearGradient><linearGradient xlink:href="#linear-gradient-7" gradientTransform="matrix(0.7, 0.72, -0.72, 0.7, 32.67, -13.35)" y2="32.26" x2="35.34" y1="32.26" x1="28.61" id="linear-gradient-24"></linearGradient><linearGradient xlink:href="#linear-gradient" gradientTransform="translate(53.46 -13.12) rotate(68.95)" y2="31.25" x2="36.56" y1="35.82" x1="35.1" id="linear-gradient-25"></linearGradient><linearGradient xlink:href="#linear-gradient-7" gradientTransform="translate(59.95 1) rotate(82.9)" y2="34.57" x2="35.13" y1="34.57" x1="23.52" id="linear-gradient-26"></linearGradient><linearGradient xlink:href="#linear-gradient-7" gradientTransform="matrix(0.79, 0.62, -0.62, 0.79, 30.66, -10.8)" y2="39.06" x2="35.46" y1="39.06" x1="25.87" id="linear-gradient-27"></linearGradient><linearGradient xlink:href="#linear-gradient-7" gradientTransform="matrix(0.64, 0.77, -0.77, 0.64, 32.25, -10.75)" y2="34.61" x2="34.7" y1="24.21" x1="21.24" id="linear-gradient-28"></linearGradient><linearGradient xlink:href="#linear-gradient-7" gradientTransform="translate(21.3 -11.64) rotate(37.93)" y2="34.17" x2="34.69" y1="17.21" x1="20.55" id="linear-gradient-29"></linearGradient><linearGradient xlink:href="#linear-gradient-7" gradientTransform="translate(20.67 -10.77) rotate(40.04)" y2="34.29" x2="34.1" y1="12.04" x1="15.69" id="linear-gradient-30"></linearGradient><linearGradient xlink:href="#linear-gradient-7" gradientTransform="translate(-0.04 -0.2) rotate(0.01)" y2="32.42" x2="30.15" y1="21.83" x1="10.57" id="linear-gradient-31"></linearGradient><linearGradient xlink:href="#linear-gradient-7" gradientTransform="translate(-0.04 -0.2) rotate(0.01)" y2="33.13" x2="32.97" y1="14.37" x1="11.73" id="linear-gradient-32"></linearGradient><linearGradient xlink:href="#linear-gradient-7" gradientTransform="translate(-0.04 -0.2) rotate(0.01)" y2="41.7" x2="35.24" y1="41.7" x1="18.02" id="linear-gradient-33"></linearGradient><linearGradient xlink:href="#linear-gradient-7" gradientTransform="translate(16.87 -5.35) rotate(22.17)" y2="35.55" x2="33.73" y1="44.88" x1="11.28" id="linear-gradient-34"></linearGradient><linearGradient xlink:href="#linear-gradient-7" gradientTransform="translate(-0.04 -0.2) rotate(0.01)" y2="35.91" x2="31.45" y1="42.28" x1="5.84" id="linear-gradient-35"></linearGradient><linearGradient xlink:href="#linear-gradient-7" gradientTransform="matrix(1, 0.1, -0.1, 1, 3.71, -1.82)" y2="36.07" x2="27.11" y1="38.06" x1="3.35" id="linear-gradient-36"></linearGradient><linearGradient xlink:href="#linear-gradient-7" gradientTransform="matrix(0.14, 0.99, -0.99, 0.14, 48.83, 9.66)" y2="35.18" x2="34.03" y1="30.86" x1="4.78" id="linear-gradient-37"></linearGradient><linearGradient xlink:href="#linear-gradient-7" gradientTransform="translate(-0.04 -0.2) rotate(0.01)" y2="34.84" x2="33.54" y1="28.29" x1="7.89" id="linear-gradient-38"></linearGradient><linearGradient xlink:href="#linear-gradient-7" gradientTransform="translate(39.5 0.25) rotate(68.79)" y2="30.72" x2="23.44" y1="23.63" x1="5.9" id="linear-gradient-39"></linearGradient><linearGradient xlink:href="#linear-gradient-7" gradientTransform="translate(-0.04 -0.2) rotate(0.01)" y2="29.26" x2="26.37" y1="17.99" x1="9.46" id="linear-gradient-40"></linearGradient><linearGradient xlink:href="#linear-gradient-7" gradientTransform="translate(16.58 -10.89) rotate(34.59)" y2="28.81" x2="30.72" y1="9.13" x1="16.92" id="linear-gradient-41"></linearGradient><linearGradient xlink:href="#linear-gradient-7" gradientTransform="translate(-0.04 -0.2) rotate(0.01)" y2="33.18" x2="34.1" y1="9.08" x1="21.08" id="linear-gradient-42"></linearGradient><linearGradient xlink:href="#linear-gradient-7" gradientTransform="translate(-0.04 -0.2) rotate(0.01)" y2="33.13" x2="34.8" y1="11.27" x1="31.15" id="linear-gradient-43"></linearGradient><linearGradient xlink:href="#linear-gradient-7" gradientTransform="matrix(0.96, 0.27, -0.27, 0.96, 7.26, -7.93)" y2="22.26" x2="35.37" y1="22.26" x1="27.3" id="linear-gradient-44"></linearGradient><linearGradient xlink:href="#linear-gradient" y2="21.32" x2="41.38" y1="21.32" x1="34.81" id="linear-gradient-45"></linearGradient><linearGradient xlink:href="#linear-gradient-7" gradientTransform="translate(8.84 -9.23) rotate(20.66)" y2="33" x2="34.34" y1="5.21" x1="23.55" id="linear-gradient-46"></linearGradient><linearGradient xlink:href="#linear-gradient-7" gradientTransform="translate(-0.04 -0.2) rotate(0.01)" y2="29.8" x2="33.79" y1="3.12" x1="27.43" id="linear-gradient-47"></linearGradient><linearGradient xlink:href="#linear-gradient" gradientTransform="translate(47.28 -24.3) rotate(74.52)" y2="4.7" x2="43.31" y1="35.75" x1="35.1" id="linear-gradient-48"></linearGradient><linearGradient xlink:href="#linear-gradient" y2="7.12" x2="46.31" y1="35.2" x1="34.94" id="linear-gradient-49"></linearGradient><linearGradient xlink:href="#linear-gradient" y2="14.52" x2="47.7" y1="34.91" x1="35.18" id="linear-gradient-50"></linearGradient><linearGradient xlink:href="#linear-gradient" y2="24.62" x2="47.67" y1="24.62" x1="34.68" id="linear-gradient-51"></linearGradient><linearGradient xlink:href="#linear-gradient" gradientTransform="translate(32.97 -27.22) rotate(49.34)" y2="10.6" x2="55.15" y1="34.2" x1="36.76" id="linear-gradient-52"></linearGradient><linearGradient xlink:href="#linear-gradient" gradientTransform="translate(28.64 -25.46) rotate(42.42)" y2="15.19" x2="56.79" y1="35.3" x1="35.02" id="linear-gradient-53"></linearGradient><linearGradient xlink:href="#linear-gradient" gradientTransform="matrix(0.74, 0.67, -0.67, 0.74, 31, -18.71)" y2="27.54" x2="43.35" y1="35.26" x1="34.94" id="linear-gradient-54"></linearGradient><linearGradient xlink:href="#linear-gradient" gradientTransform="matrix(0.9, 0.44, -0.44, 0.9, 18.03, -15.47)" y2="28.93" x2="47.84" y1="35.14" x1="35.12" id="linear-gradient-55"></linearGradient><linearGradient xlink:href="#linear-gradient" gradientTransform="matrix(0.22, 0.97, -0.97, 0.22, 65.94, -10.64)" y2="36.19" x2="44.18" y1="36.19" x1="34.92" id="linear-gradient-56"></linearGradient><linearGradient xlink:href="#linear-gradient" gradientTransform="translate(75.98 -10.51) rotate(85.75)" y2="36.23" x2="49.46" y1="35.15" x1="35.28" id="linear-gradient-57"></linearGradient><linearGradient xlink:href="#linear-gradient" gradientTransform="translate(8.3 -9.44) rotate(12.74)" y2="31.75" x2="50.09" y1="35.12" x1="35" id="linear-gradient-58"></linearGradient><linearGradient xlink:href="#linear-gradient" gradientTransform="translate(46.91 -19.96) rotate(65.36)" y2="20.26" x2="41.65" y1="35.22" x1="35.24" id="linear-gradient-59"></linearGradient><linearGradient xlink:href="#linear-gradient" y2="44.82" x2="53.7" y1="35.86" x1="35.79" id="linear-gradient-60"></linearGradient><linearGradient xlink:href="#linear-gradient" gradientTransform="matrix(0.14, 0.99, -0.99, 0.14, 79.92, -17.52)" y2="38.84" x2="62.25" y1="35.27" x1="35.44" id="linear-gradient-61"></linearGradient><linearGradient xlink:href="#linear-gradient" y2="42.62" x2="65.06" y1="35.42" x1="35.46" id="linear-gradient-62"></linearGradient><linearGradient xlink:href="#linear-gradient" gradientTransform="translate(56.39 -20.96) rotate(53.96)" y2="53.68" x2="60.6" y1="35.41" x1="35.24" id="linear-gradient-63"></linearGradient><linearGradient xlink:href="#linear-gradient" gradientTransform="matrix(0.68, 0.73, -0.73, 0.68, 48.94, -19.93)" y2="56.05" x2="57.66" y1="35.51" x1="35.04" id="linear-gradient-64"></linearGradient><linearGradient xlink:href="#linear-gradient" gradientTransform="matrix(0.74, 0.68, -0.68, 0.74, 43.24, -18.62)" y2="55.66" x2="54" y1="35.48" x1="35.16" id="linear-gradient-65"></linearGradient><linearGradient xlink:href="#linear-gradient" y2="61.49" x2="38.46" y1="38.99" x1="35.6" id="linear-gradient-66"></linearGradient><linearGradient xlink:href="#linear-gradient" y2="59.96" x2="52.16" y1="35.18" x1="35.03" id="linear-gradient-67"></linearGradient><linearGradient xlink:href="#linear-gradient" gradientTransform="matrix(0.92, 0.4, -0.4, 0.92, 23.52, -12.64)" y2="63.51" x2="47.21" y1="36.54" x1="35.79" id="linear-gradient-68"></linearGradient><linearGradient xlink:href="#linear-gradient" gradientTransform="translate(12.92 -7.8) rotate(13.37)" y2="65.39" x2="43.02" y1="44.94" x1="36.94" id="linear-gradient-69"></linearGradient><linearGradient xlink:href="#linear-gradient" y2="40.87" x2="38.35" y1="40.87" x1="34.64" id="linear-gradient-70"></linearGradient><linearGradient xlink:href="#linear-gradient" gradientTransform="translate(2.23 -1.7) rotate(2.48)" y2="65.6" x2="36.18" y1="36.2" x1="35.2" id="linear-gradient-71"></linearGradient><linearGradient xlink:href="#linear-gradient-7" gradientTransform="matrix(0.12, 0.99, -0.99, 0.12, 79.22, 11.18)" y2="45.81" x2="33.73" y1="63.54" x1="31.78" id="linear-gradient-72"></linearGradient><linearGradient xlink:href="#linear-gradient-7" gradientTransform="translate(-0.04 -0.2) rotate(0.01)" y2="45.05" x2="35.36" y1="45.05" x1="27.53" id="linear-gradient-73"></linearGradient><linearGradient xlink:href="#linear-gradient-7" gradientTransform="translate(-0.04 -0.2) rotate(0.01)" y2="35.59" x2="34.66" y1="61.09" x1="21.74" id="linear-gradient-74"></linearGradient><linearGradient xlink:href="#linear-gradient-7" gradientTransform="matrix(0.22, 0.98, -0.98, 0.22, 74.09, 8.79)" y2="36.46" x2="34.59" y1="64.79" x1="28.42" id="linear-gradient-75"></linearGradient><linearGradient xlink:href="#linear-gradient-7" gradientTransform="translate(67.05 5.84) rotate(70.05)" y2="36.68" x2="34.43" y1="63.93" x1="24.47" id="linear-gradient-76"></linearGradient><linearGradient xlink:href="#linear-gradient-7" gradientTransform="translate(-0.04 -0.2) rotate(0.01)" y2="36.24" x2="34.32" y1="60.49" x1="17.51" id="linear-gradient-77"></linearGradient><linearGradient xlink:href="#linear-gradient-7" gradientTransform="translate(31.07 -4.89) rotate(36.81)" y2="36.32" x2="33.04" y1="51.97" x1="12.88" id="linear-gradient-78"></linearGradient><linearGradient xlink:href="#linear-gradient-7" gradientTransform="translate(-0.04 -0.2) rotate(0.01)" y2="36.53" x2="32.29" y1="49.59" x1="7.99" id="linear-gradient-79"></linearGradient><linearGradient xlink:href="#linear-gradient" y2="32.76" x2="63.58" y1="35.19" x1="35.16" id="linear-gradient-80"></linearGradient><linearGradient xlink:href="#linear-gradient" gradientTransform="translate(7.19 -9.37) rotate(11.25)" y2="29.66" x2="61.93" y1="35.3" x1="35.07" id="linear-gradient-81"></linearGradient><linearGradient xlink:href="#linear-gradient" y2="49.67" x2="59.27" y1="35.13" x1="34.59" id="linear-gradient-82"></linearGradient><linearGradient xlink:href="#linear-gradient" gradientTransform="translate(16.68 -18.4) rotate(25.1)" y2="23.91" x2="58.88" y1="34.99" x1="35.52" id="linear-gradient-83"></linearGradient><linearGradient xlink:href="#linear-gradient" y2="21.7" x2="49.69" y1="34.95" x1="35.26" id="linear-gradient-84"></linearGradient><linearGradient xlink:href="#linear-gradient-7" gradientTransform="translate(60.42 -9.84) rotate(88.86)" y2="30.41" x2="34.71" y1="16.09" x1="36.13" id="linear-gradient-85"></linearGradient><linearGradient xlink:href="#linear-gradient" gradientTransform="translate(38.21 -16.45) rotate(43.39)" y2="42.93" x2="42.38" y1="35.27" x1="35.09" id="linear-gradient-86"></linearGradient><linearGradient xlink:href="#linear-gradient" gradientTransform="translate(30.07 -15.13) rotate(30.59)" y2="58.08" x2="48.62" y1="34.9" x1="34.8" id="linear-gradient-87"></linearGradient><linearGradient xlink:href="#linear-gradient-7" gradientTransform="translate(-0.04 -0.2) rotate(0.01)" y2="34.9" x2="34.47" y1="41.39" x1="34" id="linear-gradient-88"></linearGradient></defs><g data-name="Layer 2" id="Layer_2"><g data-name="Layer 1" id="Layer_1-2"><path d="M98.27,11.28,97,12.68a9.53,9.53,0,0,0-7.07-2.85c-3.91,0-6.51,2.15-6.51,5.36s1.81,4.74,7.17,6.37c5.62,1.71,8.61,3.69,8.61,8.83S95.32,39,89.52,39a13.05,13.05,0,0,1-9.41-3.73l1.28-1.36a11,11,0,0,0,8.09,3.25c4.44,0,7.6-2.51,7.6-6.72,0-3.87-1.89-5.45-7.34-7.12-6.06-1.85-8.43-3.92-8.43-8.09S84.73,8,89.87,8A11.47,11.47,0,0,1,98.27,11.28Z"></path><path d="M131.84,22.18V38.52h-2V22.44c0-3.86-1.54-5.62-4.13-5.62-2.86,0-5,2.06-6.81,5V38.52h-2V22.44c0-3.87-1.53-5.63-4.13-5.63-2.85,0-5,2.07-6.81,5V38.52h-2V15.58h1.76l.18,4c1.76-2.68,4.21-4.48,7.2-4.48s5,1.75,5.63,4.7c1.8-2.77,4.3-4.7,7.34-4.7C129.69,15.15,131.84,17.78,131.84,22.18Z"></path><path d="M153.46,37.56,153,39c-1.88-.49-3-1.54-3.2-4a8.06,8.06,0,0,1-7.25,4c-4.4,0-7-2.77-7-6.86,0-4.74,3.64-7.38,9.31-7.38h4.7V22.4c0-3.74-1.5-5.49-5.5-5.49a17.26,17.26,0,0,0-6.24,1.36l-.56-1.63a18.73,18.73,0,0,1,7-1.49c5.1,0,7.34,2.5,7.34,7.12V33.56C151.53,36.28,152.19,37.07,153.46,37.56Zm-4-4.61V26.4h-4.39c-4.7,0-7.47,1.84-7.47,5.71,0,3.3,1.94,5.18,5.14,5.18S148.05,35.71,149.5,33Z"></path><path d="M168.32,15.41l-.4,1.89a7,7,0,0,0-2-.26c-3.3,0-5.05,2.37-6.33,7.16V38.52h-2V15.59h1.76l.13,5.31c1.23-3.86,3.29-5.75,6.59-5.75A8,8,0,0,1,168.32,15.41Z"></path><path d="M180.43,39c-3.29,0-5.36-2-5.35-5.88V17.3h-3.83V15.59h3.83V10l2-.22v5.8h6.07l-.27,1.71h-5.8V33c0,2.81,1.15,4.22,3.56,4.22a7.23,7.23,0,0,0,3.7-1.06l.83,1.45A8.42,8.42,0,0,1,180.43,39Z"></path><path d="M216.17,38.53,201.27,10.8c.14,1.94.27,4.53.27,9.85V38.53h-2V8.47h2.69L217.14,36.2c-.09-1.45-.27-4.83-.27-8.78v-19h2V38.53Z"></path><path d="M241.79,37.57,241.31,39c-1.9-.48-3-1.53-3.21-4a8.06,8.06,0,0,1-7.25,4c-4.4,0-7-2.76-7-6.85,0-4.74,3.64-7.38,9.31-7.38h4.71V22.41c0-3.74-1.5-5.5-5.49-5.5a17.44,17.44,0,0,0-6.25,1.36l-.57-1.62a18.47,18.47,0,0,1,7-1.49c5.1,0,7.34,2.5,7.34,7.12V33.57C239.86,36.29,240.52,37.08,241.79,37.57ZM237.84,33V26.4h-4.4c-4.7,0-7.47,1.85-7.47,5.72,0,3.29,1.94,5.18,5.14,5.18S236.38,35.72,237.84,33Z"></path><path d="M252.56,39c-3.3,0-5.37-2-5.37-5.89V17.31h-3.82V15.6h3.82V10l2-.22v5.8h6.06L255,17.31h-5.79V33c0,2.81,1.15,4.22,3.56,4.22a7.2,7.2,0,0,0,3.69-1.06l.84,1.45A8.52,8.52,0,0,1,252.56,39Z"></path><path d="M263.59,7.38A1.59,1.59,0,1,1,262,5.84,1.52,1.52,0,0,1,263.59,7.38ZM261,38.53V15.6h2V38.53Z"></path><path d="M286.22,27c0,7.52-3.65,12-9.54,12s-9.49-4.53-9.49-11.91,3.69-11.95,9.53-11.95S286.22,19.42,286.22,27Zm-16.92.13c0,6.59,2.77,10.15,7.38,10.15s7.43-3.51,7.43-10.28-2.73-10.06-7.39-10.06S269.3,20.34,269.3,27.11Z"></path><path d="M306.56,22.2V38.54h-2V22.46c0-3.92-1.58-5.63-4.57-5.63-3.34,0-5.58,2.07-7.56,5V38.54h-2V15.6h1.76l.18,4.09c1.93-2.68,4.52-4.53,7.95-4.53C304.45,15.16,306.56,17.71,306.56,22.2Z"></path><path d="M88.36,49.55l-.9,1a4.12,4.12,0,0,0-2.86-1.14c-1.34,0-2.35.65-2.35,1.87s.53,1.65,2.81,2.35c2.07.62,3.7,1.43,3.7,3.79s-1.65,3.72-4.42,3.72a5.83,5.83,0,0,1-4.23-1.61l.93-1a4.48,4.48,0,0,0,3.28,1.32c1.54,0,2.79-.78,2.79-2.34,0-1.3-.62-1.87-2.79-2.53-2.47-.75-3.7-1.68-3.7-3.61s1.61-3.24,3.91-3.24A5.17,5.17,0,0,1,88.36,49.55Z"></path><path d="M108.28,60.93V48.32h1.59V60.93Z"></path><path d="M137.05,60.93l-5.31-10.87c.09,1,.22,2.46.22,4.79v6.08h-1.49V48.32h2.08l5.35,10.89c0-.35-.2-2.27-.2-3.83V48.32h1.48V60.93Z"></path><path d="M168.09,49.46l-.94,1a4.06,4.06,0,0,0-2.78-1c-1.86,0-3.73,1.42-3.73,5.19s1.31,5.22,3.58,5.22a4.81,4.81,0,0,0,2.45-.6V55.29h-2.29L164.2,54h4.05v6.07a7.76,7.76,0,0,1-4.14,1.1C161,61.15,159,59,159,54.61s2.58-6.51,5.37-6.51A5.35,5.35,0,0,1,168.09,49.46Z"></path><path d="M189,57.71l-1,3.22h-1.61l4.08-12.61h2l4.07,12.62h-1.69l-1-3.22Zm2.46-8.07-2.07,6.77h4.12Z"></path><path d="M223.11,52.19c0,2.88-2.07,4.06-4.84,4.06h-1.65v4.69H215V48.33h3.23C221.27,48.33,223.11,49.56,223.11,52.19Zm-1.69,0c0-1.94-1.23-2.64-3.17-2.64h-1.63V55h1.59C220.14,55,221.42,54.4,221.42,52.21Z"></path><path d="M252.2,54.65c0,4.16-2.13,6.51-5.28,6.51s-5.28-2.27-5.28-6.49,2.16-6.56,5.28-6.56S252.2,50.4,252.2,54.65Zm-8.87,0c0,3.67,1.46,5.17,3.59,5.17s3.59-1.5,3.59-5.19-1.38-5.22-3.59-5.22S243.33,51,243.33,54.67Z"></path><path d="M273.55,55.52v5.42H272V48.33h3.25c3.11,0,4.72,1.21,4.72,3.54,0,1.8-.95,2.84-2.74,3.37l3.4,5.7h-1.88l-3.08-5.42Zm4.71-3.65c0-1.59-.92-2.29-3.06-2.29h-1.65v4.71h1.85C277.21,54.29,278.26,53.61,278.26,51.87Z"></path><path d="M301.39,49.62v4.25h4.31v1.28h-4.31v4.51h5.28V61h-6.86V48.33h6.73l-.18,1.29Z"></path><polygon points="34.33 35.04 36.14 1.11 36.9 1.14 35.08 35.07 34.33 35.04" class="cls-1"></polygon><rect transform="translate(13.31 52.95) rotate(-81.48)" height="0.75" width="32.77" y="18.37" x="21.01" class="cls-2"></rect><polygon points="68.6 36.14 34.95 35.33 34.97 34.57 68.61 35.38 68.6 36.14" class="cls-3"></polygon><polygon points="35.06 35.31 34.85 34.59 67.2 25.08 67.41 25.8 35.06 35.31" class="cls-4"></polygon><polygon points="61.52 44.85 34.84 35.3 35.09 34.6 61.78 44.13 61.52 44.85" class="cls-5"></polygon><rect transform="translate(-18.1 38.35) rotate(-41.36)" height="20.77" width="0.75" y="32.76" x="41.37" class="cls-6"></rect><rect transform="translate(-9.66 18.42) rotate(-29.06)" height="17.19" width="0.76" y="19.25" x="30.33" class="cls-7"></rect><rect transform="translate(-5.83 32.39) rotate(-34.92)" height="0.76" width="33.18" y="25.08" x="31.99" class="cls-8"></rect><polygon points="35.12 35.29 34.81 34.6 58.58 25.75 58.89 26.44 35.12 35.29" class="cls-9"></polygon><polygon points="35.19 35.24 34.73 34.65 58.75 20.63 59.22 21.23 35.19 35.24" class="cls-10"></polygon><polygon points="34.51 35.39 31.82 3.84 32.56 3.78 35.26 35.32 34.51 35.39" class="cls-11"></polygon><rect transform="translate(-12.03 50.33) rotate(-77.19)" height="19.68" width="0.76" y="22.86" x="25.14" class="cls-12"></rect><polygon points="64.62 49.67 34.38 35.1 34.71 34.42 64.96 48.99 64.62 49.67" class="cls-13"></polygon><rect transform="translate(-15.69 22.15) rotate(-26.16)" height="22.06" width="0.75" y="33.83" x="39.45" class="cls-14"></rect><rect transform="translate(-22.15 38.05) rotate(-50.93)" height="0.76" width="19.05" y="41.9" x="19.36" class="cls-15"></rect><polygon points="16.72 55.55 16.16 55.05 34.91 34.63 35.46 35.14 16.72 55.55" class="cls-16"></polygon><polygon points="35.39 58.57 34.63 58.56 34.91 34.63 35.66 34.63 35.39 58.57" class="cls-17"></polygon><polygon points="11.05 58.51 10.53 57.96 34.92 34.61 35.44 35.16 11.05 58.51" class="cls-18"></polygon><rect transform="translate(-10.59 11.28) rotate(-19.03)" height="0.75" width="14.32" y="36.86" x="21.18" class="cls-19"></rect><rect transform="translate(-8.23 6.35) rotate(-13.54)" height="0.75" width="25.64" y="37.47" x="9.83" class="cls-20"></rect><rect transform="translate(-2.08 1.49) rotate(-3.42)" height="0.75" width="22.28" y="35.18" x="12.77" class="cls-21"></rect><polygon points="34.79 35.28 4.25 34.7 4.26 33.95 34.81 34.53 34.79 35.28" class="cls-22"></polygon><rect transform="translate(-13.26 41.87) rotate(-68.85)" height="23.84" width="0.76" y="18.68" x="23.53" class="cls-23"></rect><rect transform="translate(-13.32 32.51) rotate(-45.68)" height="8.67" width="0.75" y="27.72" x="31.55" class="cls-24"></rect><rect transform="matrix(0.36, -0.93, 0.93, 0.36, -7, 54.4)" height="0.75" width="5.99" y="31.92" x="33.12" class="cls-25"></rect><rect transform="translate(-8.46 59.17) rotate(-82.89)" height="11.61" width="0.76" y="28.57" x="28.9" class="cls-26"></rect><rect transform="translate(-17.47 27.24) rotate(-38.18)" height="0.75" width="11.61" y="38.49" x="24.82" class="cls-27"></rect><rect transform="translate(-12.22 31.54) rotate(-50.57)" height="20.09" width="0.75" y="18.66" x="26.89" class="cls-28"></rect><rect transform="translate(-9.69 22.07) rotate(-37.93)" height="25.25" width="0.75" y="12.51" x="26.9" class="cls-29"></rect><rect transform="translate(-8.94 21.34) rotate(-40.03)" height="31.73" width="0.76" y="7.07" x="24.45" class="cls-30"></rect><polygon points="34.78 35.28 8.12 20.66 8.47 20 35.14 34.62 34.78 35.28" class="cls-31"></polygon><polygon points="34.7 35.23 9.93 12.91 10.44 12.35 35.21 34.67 34.7 35.23" class="cls-32"></polygon><polygon points="18.44 48.35 17.97 47.76 34.73 34.65 35.19 35.24 18.44 48.35" class="cls-33"></polygon><rect transform="translate(-13.64 11.12) rotate(-22.16)" height="0.75" width="28.91" y="40.02" x="7.11" class="cls-34"></rect><polygon points="3.04 43.05 2.86 42.31 34.87 34.58 35.05 35.31 3.04 43.05" class="cls-35"></polygon><rect transform="translate(-3.55 1.98) rotate(-5.71)" height="0.75" width="33.89" y="36.25" x="1.15" class="cls-36"></rect><rect transform="translate(-16.22 46.88) rotate(-82.22)" height="32.72" width="0.75" y="16.37" x="18.37" class="cls-37"></rect><polygon points="34.87 35.31 5.47 27.94 5.66 27.21 35.05 34.58 34.87 35.31" class="cls-38"></polygon><rect transform="translate(-14.57 36.53) rotate(-68.78)" height="33.38" width="0.75" y="12.22" x="19.02" class="cls-39"></rect><polygon points="34.75 35.26 7.96 17.15 8.39 16.53 35.17 34.63 34.75 35.26" class="cls-40"></polygon><rect transform="matrix(0.82, -0.57, 0.57, 0.82, -7.51, 18.18)" height="33.53" width="0.76" y="4.38" x="25.06" class="cls-41"></rect><polygon points="34.63 35.13 19.93 7.34 20.6 6.99 35.29 34.77 34.63 35.13" class="cls-42"></polygon><polygon points="34.58 35.01 30.76 10.51 31.5 10.39 35.33 34.89 34.58 35.01" class="cls-43"></polygon><rect transform="translate(-4.85 9.42) rotate(-15.9)" height="26.79" width="0.75" y="8.67" x="30.91" class="cls-44"></rect><polygon points="34.77 34.92 40.6 7.17 41.34 7.32 35.5 35.08 34.77 34.92" class="cls-45"></polygon><rect transform="translate(-5.06 11.56) rotate(-20.65)" height="32.68" width="0.75" y="3.32" x="28.82" class="cls-46"></rect><polygon points="34.59 35.03 26.95 2.46 27.68 2.28 35.33 34.86 34.59 35.03" class="cls-47"></polygon><rect transform="translate(10.75 51.86) rotate(-74.51)" height="0.76" width="34.24" y="18.48" x="22.35" class="cls-48"></rect><polygon points="35.3 35.1 34.61 34.8 46.63 4.93 47.33 5.23 35.3 35.1" class="cls-49"></polygon><polygon points="35.28 35.15 34.64 34.75 51.77 6.97 52.41 7.36 35.28 35.15" class="cls-50"></polygon><polygon points="35.28 35.14 34.64 34.76 46.98 13.72 47.63 14.1 35.28 35.14" class="cls-51"></polygon><rect transform="translate(-0.88 42.55) rotate(-49.33)" height="0.75" width="33.52" y="21.86" x="29.12" class="cls-52"></rect><rect transform="matrix(0.74, -0.67, 0.67, 0.74, -4.02, 37.92)" height="0.76" width="32.14" y="23.76" x="30.78" class="cls-53"></rect><rect transform="translate(-10.47 34.47) rotate(-42.14)" height="0.75" width="12.27" y="30.45" x="33.37" class="cls-54"></rect><rect transform="translate(-9.51 21.6) rotate(-25.9)" height="0.76" width="16.07" y="31.09" x="34.16" class="cls-55"></rect><rect transform="translate(-4.4 66.46) rotate(-77.09)" height="9.33" width="0.75" y="31.33" x="39.13" class="cls-56"></rect><rect transform="translate(4.81 76.35) rotate(-85.75)" height="17.17" width="0.75" y="27" x="43.14" class="cls-57"></rect><rect transform="translate(-6.06 10.84) rotate(-12.74)" height="0.75" width="21.69" y="32.19" x="34.69" class="cls-58"></rect><rect transform="translate(-1.46 50.76) rotate(-65.36)" height="0.76" width="18.59" y="26.14" x="29.54" class="cls-59"></rect><polygon points="55.83 46.46 34.78 35.28 35.14 34.62 56.18 45.79 55.83 46.46" class="cls-60"></polygon><rect transform="translate(6.42 81.37) rotate(-82.16)" height="30.12" width="0.75" y="21.94" x="49.5" class="cls-61"></rect><polygon points="67.21 43.52 34.87 35.31 35.05 34.58 67.39 42.79 67.21 43.52" class="cls-62"></polygon><rect transform="translate(-16.28 57.73) rotate(-53.96)" height="33.66" width="0.75" y="28.02" x="48.19" class="cls-63"></rect><rect transform="translate(-18.93 49.15) rotate(-46.9)" height="33.5" width="0.76" y="29.64" x="46.81" class="cls-64"></rect><rect transform="translate(-19.28 42.77) rotate(-42.59)" height="30.36" width="0.75" y="30.94" x="44.85" class="cls-65"></rect><polygon points="38.48 63.94 34.58 35 35.33 34.9 39.22 63.83 38.48 63.94" class="cls-66"></polygon><polygon points="53.08 61.83 34.65 35.16 35.27 34.74 53.7 61.41 53.08 61.83" class="cls-67"></polygon><rect transform="translate(-16.55 20.79) rotate(-23.57)" height="32.96" width="0.75" y="33.57" x="41.17" class="cls-68"></rect><rect transform="translate(-10.81 10.37) rotate(-13.37)" height="33.66" width="0.76" y="34.49" x="38.47" class="cls-69"></rect><polygon points="37.57 46.48 34.59 35.03 35.33 34.86 38.3 46.31 37.57 46.48" class="cls-70"></polygon><rect transform="translate(-2.2 1.59) rotate(-2.48)" height="33.66" width="0.76" y="34.86" x="35.3" class="cls-71"></rect><rect transform="translate(-20.39 77.17) rotate(-83.3)" height="0.75" width="30.41" y="49.67" x="17.98" class="cls-72"></rect><polygon points="28.19 54.88 27.48 54.63 34.6 34.82 35.31 35.08 28.19 54.88" class="cls-73"></polygon><polygon points="20.6 63.63 19.93 63.29 34.62 34.77 35.29 35.12 20.6 63.63" class="cls-74"></polygon><rect transform="translate(-24.97 70.12) rotate(-77.25)" height="0.75" width="32.28" y="50.31" x="15.26" class="cls-75"></rect><rect transform="translate(-28.42 60.83) rotate(-70.04)" height="0.76" width="33.52" y="50.31" x="12.43" class="cls-76"></rect><polygon points="16.23 62.83 15.61 62.4 34.65 34.74 35.27 35.16 16.23 62.83" class="cls-77"></polygon><rect transform="translate(-21.99 22.33) rotate(-36.8)" height="0.75" width="30.94" y="43.84" x="7.1" class="cls-78"></rect><polygon points="5.74 50.93 5.38 50.27 34.78 34.62 35.13 35.28 5.74 50.93" class="cls-79"></polygon><polygon points="34.98 35.32 34.93 34.57 66.64 31.98 66.69 32.73 34.98 35.32" class="cls-80"></polygon><rect transform="translate(-5.26 10.39) rotate(-11.24)" height="0.75" width="30.99" y="31.55" x="34.66" class="cls-81"></rect><polygon points="60.68 51.01 34.76 35.27 35.16 34.63 61.07 50.37 60.68 51.01" class="cls-82"></polygon><rect transform="translate(-7.35 23.54) rotate(-25.09)" height="0.76" width="31.5" y="27.9" x="33.47" class="cls-83"></rect><polygon points="35.22 35.23 34.7 34.67 51.3 19.51 51.81 20.07 35.22 35.23" class="cls-84"></polygon><rect transform="translate(8.59 60.4) rotate(-88.86)" height="0.76" width="18.56" y="25.44" x="25.82" class="cls-85"></rect><rect transform="translate(-16.52 38) rotate(-43.38)" height="13.24" width="0.76" y="33.14" x="39.13" class="cls-86"></rect><rect transform="translate(-18.23 28.12) rotate(-30.59)" height="28.91" width="0.75" y="32.94" x="41.94" class="cls-87"></rect><path d="M58.12,9.53a1.31,1.31,0,1,1-1.31-1.28A1.25,1.25,0,0,1,58.12,9.53Z" class="cls-88"></path><path d="M60,13.33a1.31,1.31,0,1,1-1.31-1.27A1.24,1.24,0,0,1,60,13.33Z" class="cls-88"></path><path d="M48.28,5.08A1.31,1.31,0,1,1,47,3.81,1.26,1.26,0,0,1,48.28,5.08Z" class="cls-88"></path><path d="M53.39,7.17a1.31,1.31,0,1,1-1.3-1.28A1.25,1.25,0,0,1,53.39,7.17Z" class="cls-88"></path><path d="M24.74,4.37a1.31,1.31,0,0,1-2.61,0,1.31,1.31,0,0,1,2.61,0Z" class="cls-88"></path><path d="M4.26,42.68A1.26,1.26,0,0,1,3,44a1.27,1.27,0,1,1,0-2.54A1.25,1.25,0,0,1,4.26,42.68Z" class="cls-88"></path><path d="M17.22,62.61a1.31,1.31,0,1,1-1.3-1.27A1.25,1.25,0,0,1,17.22,62.61Z" class="cls-88"></path><path d="M37.87,1.27a1.31,1.31,0,0,1-2.62,0,1.31,1.31,0,0,1,2.62,0Z" class="cls-88"></path><path d="M41.14,2.54a1.31,1.31,0,0,1-2.62,0,1.31,1.31,0,0,1,2.62,0Z" class="cls-88"></path><path d="M33.5,3.81a1.31,1.31,0,1,1-1.31-1.27A1.25,1.25,0,0,1,33.5,3.81Z" class="cls-88"></path><path d="M28.62,2.37a1.31,1.31,0,0,1-2.61,0,1.31,1.31,0,0,1,2.61,0Z" class="cls-88"></path><path d="M45.36,2.54a1.31,1.31,0,0,1-2.61,0,1.31,1.31,0,0,1,2.61,0Z" class="cls-88"></path><path d="M63.49,16a1.31,1.31,0,1,1-1.31-1.27A1.25,1.25,0,0,1,63.49,16Z" class="cls-88"></path><path d="M63.48,54.76a1.31,1.31,0,0,1-2.61,0,1.31,1.31,0,0,1,2.61,0Z" class="cls-88"></path><path d="M60.72,57.84a1.31,1.31,0,1,1-1.3-1.27A1.25,1.25,0,0,1,60.72,57.84Z" class="cls-88"></path><path d="M52.87,19.79a1.31,1.31,0,1,1-1.31-1.27A1.25,1.25,0,0,1,52.87,19.79Z" class="cls-88"></path><path d="M32.44,10.45a1.31,1.31,0,0,1-2.61,0,1.31,1.31,0,0,1,2.61,0Z" class="cls-88"></path><path d="M66.66,28.91a1.31,1.31,0,1,1-1.3-1.27A1.24,1.24,0,0,1,66.66,28.91Z" class="cls-88"></path><path d="M68.61,25.42a1.31,1.31,0,1,1-1.31-1.27A1.25,1.25,0,0,1,68.61,25.42Z" class="cls-88"></path><path d="M21.58,7.35a1.31,1.31,0,1,1-1.31-1.28A1.25,1.25,0,0,1,21.58,7.35Z" class="cls-88"></path><path d="M9.6,20.33A1.25,1.25,0,0,1,8.3,21.6a1.27,1.27,0,1,1,0-2.54A1.25,1.25,0,0,1,9.6,20.33Z" class="cls-88"></path><path d="M20.82,15.17a1.31,1.31,0,1,1-1.31-1.27A1.25,1.25,0,0,1,20.82,15.17Z" class="cls-88"></path><path d="M11.49,12.63a1.25,1.25,0,0,1-1.3,1.27,1.27,1.27,0,1,1,0-2.54A1.25,1.25,0,0,1,11.49,12.63Z" class="cls-88"></path><path d="M9.48,16.84a1.25,1.25,0,0,1-1.3,1.27,1.27,1.27,0,1,1,0-2.54A1.25,1.25,0,0,1,9.48,16.84Z" class="cls-88"></path><path d="M32.73,65.16a1.31,1.31,0,1,1-1.31-1.27A1.25,1.25,0,0,1,32.73,65.16Z" class="cls-88"></path><path d="M37.57,67.7a1.31,1.31,0,1,1-1.31-1.27A1.25,1.25,0,0,1,37.57,67.7Z" class="cls-88"></path><path d="M44.05,67.7a1.31,1.31,0,1,1-1.31-1.27A1.25,1.25,0,0,1,44.05,67.7Z" class="cls-88"></path><path d="M49.44,65.16a1.31,1.31,0,1,1-1.31-1.27A1.25,1.25,0,0,1,49.44,65.16Z" class="cls-88"></path><path d="M30.13,29.08a1.31,1.31,0,1,1-1.26-1.32A1.25,1.25,0,0,1,30.13,29.08Z" class="cls-88"></path><path d="M45.35,44.57a1.31,1.31,0,1,1-1.3-1.27A1.25,1.25,0,0,1,45.35,44.57Z" class="cls-88"></path><path d="M53.39,36.22A1.31,1.31,0,1,1,52.08,35,1.25,1.25,0,0,1,53.39,36.22Z" class="cls-88"></path><path d="M22.88,39.57a1.31,1.31,0,1,1-1.31-1.27A1.25,1.25,0,0,1,22.88,39.57Z" class="cls-88"></path><path d="M56.8,57.3A1.31,1.31,0,1,1,55.5,56,1.24,1.24,0,0,1,56.8,57.3Z" class="cls-88"></path><path d="M54.69,61.62a1.31,1.31,0,1,1-1.31-1.27A1.24,1.24,0,0,1,54.69,61.62Z" class="cls-88"></path><path d="M68.61,43.15a1.31,1.31,0,1,1-1.31-1.27A1.25,1.25,0,0,1,68.61,43.15Z" class="cls-88"></path><path d="M63,44.49a1.31,1.31,0,1,1-1.31-1.27A1.25,1.25,0,0,1,63,44.49Z" class="cls-88"></path><path d="M46,54.76a1.31,1.31,0,1,1-1.31-1.28A1.25,1.25,0,0,1,46,54.76Z" class="cls-88"></path><path d="M36.27,58.24A1.31,1.31,0,1,1,35,57,1.25,1.25,0,0,1,36.27,58.24Z" class="cls-88"></path><path d="M5.57,34.32a1.26,1.26,0,0,1-1.31,1.27,1.27,1.27,0,1,1,0-2.54A1.26,1.26,0,0,1,5.57,34.32Z" class="cls-88"></path><path d="M48.61,13.91a1.31,1.31,0,1,1-1.3-1.28A1.25,1.25,0,0,1,48.61,13.91Z" class="cls-88"></path><path d="M60,26.1a1.31,1.31,0,1,1-1.31-1.27A1.25,1.25,0,0,1,60,26.1Z" class="cls-88"></path><path d="M44.05,18.12a1.31,1.31,0,1,1-1.31-1.27A1.25,1.25,0,0,1,44.05,18.12Z" class="cls-88"></path><path d="M20.82,22.33a1.26,1.26,0,0,1-1.31,1.27,1.27,1.27,0,1,1,1.31-1.27Z" class="cls-88"></path><path d="M50.75,28a1.31,1.31,0,1,1-1.31-1.27A1.25,1.25,0,0,1,50.75,28Z" class="cls-88"></path><path d="M36.56,15.58a1.31,1.31,0,1,1-1.31-1.28A1.26,1.26,0,0,1,36.56,15.58Z" class="cls-88"></path><path d="M28.92,9.18a1.31,1.31,0,1,1-1.31-1.27A1.25,1.25,0,0,1,28.92,9.18Z" class="cls-88"></path><path d="M66.1,39.06a1.31,1.31,0,1,1-1.31-1.28A1.25,1.25,0,0,1,66.1,39.06Z" class="cls-88"></path><path d="M29.19,66.43a1.31,1.31,0,1,1-1.3-1.27A1.25,1.25,0,0,1,29.19,66.43Z" class="cls-88"></path><path d="M21.57,63.46a1.31,1.31,0,1,1-1.31-1.27A1.25,1.25,0,0,1,21.57,63.46Z" class="cls-88"></path><path d="M17.75,55.3A1.31,1.31,0,1,1,16.44,54,1.25,1.25,0,0,1,17.75,55.3Z" class="cls-88"></path><path d="M14.1,36.22A1.31,1.31,0,1,1,12.79,35,1.25,1.25,0,0,1,14.1,36.22Z" class="cls-88"></path><path d="M9.48,45.84a1.25,1.25,0,0,1-1.31,1.27,1.27,1.27,0,1,1,0-2.54A1.25,1.25,0,0,1,9.48,45.84Z" class="cls-88"></path><path d="M15.92,10.79a1.31,1.31,0,1,1-1.3-1.27A1.24,1.24,0,0,1,15.92,10.79Z" class="cls-88"></path><path d="M60.29,20.93a1.31,1.31,0,0,1-2.61,0,1.31,1.31,0,0,1,2.61,0Z" class="cls-88"></path><path d="M45.35,26.71a1.31,1.31,0,1,1-1.3-1.27A1.24,1.24,0,0,1,45.35,26.71Z" class="cls-88"></path><path d="M27.84,20.33a1.31,1.31,0,1,1-1.31-1.27A1.25,1.25,0,0,1,27.84,20.33Z" class="cls-88"></path><path d="M49.92,51a1.31,1.31,0,1,1-1.31-1.28A1.25,1.25,0,0,1,49.92,51Z" class="cls-88"></path><path d="M24.18,49.67a1.31,1.31,0,1,1-1.3-1.27A1.25,1.25,0,0,1,24.18,49.67Z" class="cls-88"></path><path d="M14.1,26.31A1.31,1.31,0,1,1,12.79,25,1.25,1.25,0,0,1,14.1,26.31Z" class="cls-88"></path><path d="M45.35,37a1.31,1.31,0,1,1-1.3-1.27A1.25,1.25,0,0,1,45.35,37Z" class="cls-88"></path><path d="M66.1,49.33a1.31,1.31,0,1,1-1.31-1.27A1.25,1.25,0,0,1,66.1,49.33Z" class="cls-88"></path><path d="M69.91,35.6a1.31,1.31,0,1,1-1.3-1.27A1.25,1.25,0,0,1,69.91,35.6Z" class="cls-88"></path><path d="M68,32.36a1.31,1.31,0,1,1-1.31-1.27A1.25,1.25,0,0,1,68,32.36Z" class="cls-88"></path><path d="M64.79,21.61a1.31,1.31,0,1,1-1.3-1.28A1.25,1.25,0,0,1,64.79,21.61Z" class="cls-88"></path><path d="M6.87,50.6a1.25,1.25,0,0,1-1.31,1.27,1.27,1.27,0,1,1,0-2.54A1.25,1.25,0,0,1,6.87,50.6Z" class="cls-88"></path><path d="M11.49,53.48a1.25,1.25,0,0,1-1.31,1.27,1.27,1.27,0,1,1,0-2.54A1.26,1.26,0,0,1,11.49,53.48Z" class="cls-88"></path><path d="M12.09,58.24a1.25,1.25,0,0,1-1.3,1.27,1.27,1.27,0,1,1,0-2.54A1.25,1.25,0,0,1,12.09,58.24Z" class="cls-88"></path><path d="M24.73,66.43a1.31,1.31,0,1,1-1.31-1.28A1.25,1.25,0,0,1,24.73,66.43Z" class="cls-88"></path><path d="M29.14,54.76a1.31,1.31,0,1,1-1.31-1.28A1.25,1.25,0,0,1,29.14,54.76Z" class="cls-88"></path><path d="M19.51,48.06a1.31,1.31,0,1,1-1.3-1.27A1.25,1.25,0,0,1,19.51,48.06Z" class="cls-88"></path><path d="M5.15,22.87a1.25,1.25,0,0,1-1.31,1.27,1.27,1.27,0,1,1,0-2.54A1.26,1.26,0,0,1,5.15,22.87Z" class="cls-88"></path><path d="M6.87,27.58a1.25,1.25,0,0,1-1.3,1.26,1.27,1.27,0,1,1,0-2.53A1.25,1.25,0,0,1,6.87,27.58Z" class="cls-88"></path><path d="M3.84,30.52a1.24,1.24,0,0,1-1.3,1.27,1.27,1.27,0,1,1,0-2.54A1.24,1.24,0,0,1,3.84,30.52Z" class="cls-88"></path><path d="M2.61,38.3a1.24,1.24,0,0,1-1.3,1.27,1.27,1.27,0,1,1,0-2.54A1.25,1.25,0,0,1,2.61,38.3Z" class="cls-88"></path><path d="M11.49,40.84a1.25,1.25,0,0,1-1.31,1.27,1.27,1.27,0,1,1,0-2.54A1.26,1.26,0,0,1,11.49,40.84Z" class="cls-88"></path><path d="M17.23,30.52a1.31,1.31,0,1,1-1.31-1.27A1.25,1.25,0,0,1,17.23,30.52Z" class="cls-88"></path><path d="M17.23,7.35a1.31,1.31,0,1,1-1.31-1.28A1.25,1.25,0,0,1,17.23,7.35Z" class="cls-88"></path><path d="M27.86,42.67a1.31,1.31,0,1,1-.27-1.8A1.24,1.24,0,0,1,27.86,42.67Z" class="cls-88"></path><path d="M38.71,45.5A1.3,1.3,0,1,1,37,45,1.24,1.24,0,0,1,38.71,45.5Z" class="cls-88"></path><path d="M37.91,30.6a1.26,1.26,0,0,1-1.78-.41,1.27,1.27,0,1,1,2.14-1.38A1.26,1.26,0,0,1,37.91,30.6Z" class="cls-88"></path><path d="M24.58,32.89a1.31,1.31,0,1,1-1.81-.27A1.24,1.24,0,0,1,24.58,32.89Z" class="cls-88"></path><path d="M42.11,7.83a1.31,1.31,0,0,1-2.43-1,1.31,1.31,0,0,1,2.43,1Z" class="cls-88"></path><path d="M57.4,29.93a1.31,1.31,0,0,1-2.56.51,1.31,1.31,0,0,1,2.56-.51Z" class="cls-88"></path><path d="M57.2,46.64a1.25,1.25,0,0,1-1.7.66,1.27,1.27,0,1,1,1-2.34A1.24,1.24,0,0,1,57.2,46.64Z" class="cls-88"></path><path d="M39.91,64.64a1.24,1.24,0,0,1-1.79.28,1.27,1.27,0,1,1,1.46-2.07A1.24,1.24,0,0,1,39.91,64.64Z" class="cls-88"></path><path d="M61.85,51.56a1.31,1.31,0,1,1-.13-1.82A1.25,1.25,0,0,1,61.85,51.56Z" class="cls-88"></path><path d="M51,60a1.31,1.31,0,1,1-1.12-1.43A1.25,1.25,0,0,1,51,60Z" class="cls-88"></path><polygon points="35.09 35.3 33.91 42.35 33.17 42.21 34.35 35.16 35.09 35.3" class="cls-89"></polygon><path d="M34.8,42a1.31,1.31,0,1,1-1.3-1.27A1.25,1.25,0,0,1,34.8,42Z" class="cls-88"></path></g></g></svg>